# xmcd
#
# Track frame offsets: 
#        150
#        15171
#        38339
#        49347
#        72541
#        83991
#        107957
#        124520
#        140078
#        156864
#        174394
#        195006
#        208828
#        227735
#        244108
#
# Disc length: 3466 seconds
#
# Revision: 1
# Processed by: cddbd v1.5.2PL0 Copyright (c) Steve Scherf et al.
# Submitted via: ExactAudioCopy v0.95b4
#
DISCID=c40d880f
DTITLE=Miracle - Miracle 'GOLD' best
DYEAR=2002
DGENRE=New Age
TTITLE0=Kenny G - Loving You
TTITLE1=George Winston - Loving/Love
TTITLE2=Ennio Morricone - Sentimental Walk
TTITLE3=James Galway feat. Cleo Laine - Consuelo`s Love Theme
TTITLE4=Jim Brickman - Circles
TTITLE5=Claude Bolling &Jean-Pierre Lampal - Javanaise
TTITLE6=Ryuichi Sakamoto - Rain
TTITLE7=Toots Thielemans - Manha De Carnaval
TTITLE8=Jethro Tull and The London Symphony Orchestra - Elegy
TTITLE9=Richard Stoltzman - Adagio
TTITLE10=Yanni - Reflection Of Passion
TTITLE11=Evelyn Glennie - Berceuse D-dur, op. 16
TTITLE12=Suzanne Ciani - Hotel Luna
TTITLE13=David Benoit - Major Dreams, Minor Lies
TTITLE14=Alison Hood - To A Secret Place
EXTD=YEAR: 2002
EXTT0=
EXTT1=
EXTT2=
EXTT3=
EXTT4=
EXTT5=
EXTT6=
EXTT7=
EXTT8=
EXTT9=
EXTT10=
EXTT11=
EXTT12=
EXTT13=
EXTT14=
PLAYORDER=
